<?xml version="1.0" encoding="UTF-8" standalone="no"?>
<svg
   width="1123"
   zoomAndPan="magnify"
   viewBox="0 0 842.25 112.499997"
   height="150"
   preserveAspectRatio="xMidYMid meet"
   version="1.2"
   id="svg15"
   sodipodi:docname="waves.svg"
   inkscape:version="1.4.2 (f4327f4, 2025-05-13)"
   xmlns:inkscape="http://www.inkscape.org/namespaces/inkscape"
   xmlns:sodipodi="http://sodipodi.sourceforge.net/DTD/sodipodi-0.dtd"
   xmlns="http://www.w3.org/2000/svg"
   xmlns:svg="http://www.w3.org/2000/svg">
  <sodipodi:namedview
     id="namedview15"
     pagecolor="#ffffff"
     bordercolor="#000000"
     borderopacity="0.25"
     inkscape:showpageshadow="2"
     inkscape:pageopacity="0.0"
     inkscape:pagecheckerboard="0"
     inkscape:deskcolor="#d1d1d1"
     inkscape:zoom="0.7871772"
     inkscape:cx="560.86482"
     inkscape:cy="74.316177"
     inkscape:window-width="1902"
     inkscape:window-height="973"
     inkscape:window-x="64"
     inkscape:window-y="0"
     inkscape:window-maximized="0"
     inkscape:current-layer="svg15" />
  <defs
     id="defs7">
    <clipPath
       id="80def37a3f">
      <path
         d="M 1.488281 0 L 840.011719 0 L 840.011719 112.003906 L 1.488281 112.003906 Z M 1.488281 0 "
         id="path1" />
    </clipPath>
    <clipPath
       id="0d1c49196f">
      <path
         d="M 1.488281 1.578125 L 840.011719 1.578125 L 840.011719 112.003906 L 1.488281 112.003906 Z M 1.488281 1.578125 "
         id="path2" />
    </clipPath>
    <clipPath
       id="bc6d30773d">
      <path
         d="M 1.488281 1.578125 L 391 1.578125 L 391 98 L 1.488281 98 Z M 1.488281 1.578125 "
         id="path3" />
    </clipPath>
    <clipPath
       id="6479afce21">
      <path
         d="M 567 33 L 840.011719 33 L 840.011719 64 L 567 64 Z M 567 33 "
         id="path4" />
    </clipPath>
    <clipPath
       id="6223f4fc47">
      <path
         d="M 1.488281 11.199219 L 840.011719 11.199219 L 840.011719 112.003906 L 1.488281 112.003906 Z M 1.488281 11.199219 "
         id="path5" />
    </clipPath>
    <clipPath
       id="9de7b9d04a">
      <path
         d="M 1.488281 11.199219 L 396 11.199219 L 396 107 L 1.488281 107 Z M 1.488281 11.199219 "
         id="path6" />
    </clipPath>
    <clipPath
       id="27abc6fd95">
      <path
         d="M 570 42 L 840.011719 42 L 840.011719 73 L 570 73 Z M 570 42 "
         id="path7" />
    </clipPath>
  </defs>
  <g
     id="885be0ca5d"
     transform="matrix(1.0034087,0,0,0.44257819,-0.00507317,62.621621)">
    <g
       clip-rule="nonzero"
       clip-path="url(#0d1c49196f)"
       id="g10"
       style="display:inline">
      <path
         style="fill:#fcca46;fill-opacity:1;fill-rule:nonzero;stroke:none"
         d="m -17.683594,1.578125 c 0,0 50.589844,87.292969 282.027344,89.527344 277.09766,2.679687 438.25781,-89.527344 577.5,-46.550781 V 117.97266 H -17.683594 Z m 0,0"
         id="path10" />
    </g>
    <g
       clip-rule="nonzero"
       clip-path="url(#6223f4fc47)"
       id="g13"
       style="display:inline">
      <path
         style="fill:#1b475d;fill-opacity:1;fill-rule:nonzero;stroke:none"
         d="m -8.0625,11.199219 c 0,0 50.027344,86.320312 278.87891,88.53125 274.0039,2.652341 433.36328,-88.53125 571.05468,-46.035157 V 126.29688 H -8.0625 Z m 0,0"
         id="path13" />
    </g>
    <g
       clip-rule="nonzero"
       clip-path="url(#9de7b9d04a)"
       id="g14">
      <path
         style="display:inline;fill:#b4bd62;fill-opacity:1;fill-rule:nonzero;stroke:none"
         d="m -8.0625,11.199219 v 44.503906 c 39.625,23.320313 157.64453,73.332035 403.56641,38.890625 -41.48047,3.816406 -83.05079,5.51563 -124.70313,5.101562 C 41.964844,97.519531 -8.0625,11.199219 -8.0625,11.199219 Z m 0,0"
         id="path14" />
    </g>
    <g
       clip-rule="nonzero"
       clip-path="url(#27abc6fd95)"
       id="g15"
       style="display:inline">
      <path
         style="display:inline;fill:#b4bd62;fill-opacity:1;fill-rule:nonzero;stroke:none"
         d="m 570.51953,68.742188 c 29.66406,-3.894532 65.20703,-8.5 103.13281,-13.277344 C 775.47266,42.628906 841.9375,72.140625 841.9375,72.140625 V 53.695312 C 763.98437,29.660156 679.14062,48.394531 570.51953,68.742188 Z m 0,0"
         id="path15" />
    </g>
  </g>
</svg>
